<svg xmlns="http://www.w3.org/2000/svg" width="1400" height="720" viewBox="0 0 1400 720" role="img" aria-labelledby="title desc">
  <title id="title">Landscape plan prompt example</title>
  <desc id="desc">A conceptual before and after illustration showing a hand-drawn landscape plan converted into a clean colored presentation plan prompt.</desc>
  <defs>
    <style>
      .bg{fill:#f7f5ef}
      .panel{fill:#fffdf8;stroke:#2c2c2c;stroke-width:2}
      .ink{fill:#252525;font-family:Inter,Arial,sans-serif}
      .muted{fill:#666;font-family:Inter,Arial,sans-serif}
      .line{stroke:#2c2c2c;stroke-width:3;fill:none;stroke-linecap:round;stroke-linejoin:round}
      .sketch{stroke:#3b3b3b;stroke-width:3;fill:none;stroke-linecap:round;stroke-linejoin:round;stroke-dasharray:7 7}
      .path{fill:#e8d7bd;stroke:#2c2c2c;stroke-width:2}
      .water{fill:#cfe7f4;stroke:#2c2c2c;stroke-width:2}
      .lawn{fill:#d8f0e1;stroke:#2c2c2c;stroke-width:2}
      .tree{fill:#9fcf9d;stroke:#2c2c2c;stroke-width:2}
      .shrub{fill:#bfd9a8;stroke:#2c2c2c;stroke-width:1.5}
    </style>
    <marker id="arrow" markerWidth="12" markerHeight="12" refX="10" refY="6" orient="auto">
      <path d="M2,2 L10,6 L2,10 Z" fill="#2c2c2c"/>
    </marker>
  </defs>
  <rect class="bg" width="1400" height="720"/>
  <text class="ink" x="60" y="62" font-size="34" font-weight="700">Example: hand sketch to colored landscape plan</text>
  <text class="muted" x="60" y="98" font-size="18">The skill names what must stay fixed, then asks GPT Image 2 to clean, color, and professionalize the plan.</text>

  <rect class="panel" x="70" y="145" width="480" height="410" rx="18"/>
  <text class="ink" x="105" y="192" font-size="23" font-weight="700">Input: hand-drawn plan</text>
  <path class="sketch" d="M150 425 C205 310 265 300 335 360 C395 405 445 350 495 255"/>
  <path class="sketch" d="M155 255 C250 192 370 192 492 248"/>
  <ellipse class="sketch" cx="285" cy="323" rx="75" ry="48"/>
  <circle class="sketch" cx="180" cy="270" r="28"/>
  <circle class="sketch" cx="232" cy="236" r="24"/>
  <circle class="sketch" cx="430" cy="325" r="30"/>
  <circle class="sketch" cx="470" cy="375" r="20"/>
  <rect x="155" y="470" width="140" height="35" rx="6" fill="none" stroke="#3b3b3b" stroke-width="3" stroke-dasharray="8 5"/>
  <text class="muted" x="160" y="525" font-size="15">messy linework</text>
  <text class="muted" x="160" y="546" font-size="15">layout still matters</text>

  <path class="line" marker-end="url(#arrow)" d="M590 350 H770"/>
  <rect x="590" y="250" width="180" height="70" rx="12" fill="#fffdf8" stroke="#2c2c2c" stroke-width="2"/>
  <text class="ink" x="612" y="280" font-size="17" font-weight="700">Compiled prompt</text>
  <text class="muted" x="612" y="304" font-size="14">preserve geometry</text>

  <rect class="panel" x="820" y="145" width="500" height="410" rx="18"/>
  <text class="ink" x="855" y="192" font-size="23" font-weight="700">Output target: presentation plan</text>
  <path class="lawn" d="M900 438 C950 325 1005 312 1075 368 C1130 412 1180 352 1235 260 L1232 490 L895 490 Z"/>
  <path class="path" d="M875 260 C970 205 1115 205 1245 252 L1225 288 C1115 250 990 250 900 305 Z"/>
  <ellipse class="water" cx="1050" cy="338" rx="78" ry="48"/>
  <circle class="tree" cx="925" cy="282" r="30"/>
  <circle class="tree" cx="985" cy="246" r="26"/>
  <circle class="tree" cx="1188" cy="328" r="32"/>
  <circle class="tree" cx="1225" cy="380" r="22"/>
  <circle class="shrub" cx="960" cy="430" r="14"/>
  <circle class="shrub" cx="997" cy="450" r="12"/>
  <circle class="shrub" cx="1140" cy="430" r="15"/>
  <rect class="path" x="915" y="470" width="150" height="36" rx="6"/>
  <text class="muted" x="870" y="525" font-size="15">clean geometry, muted color</text>
  <text class="muted" x="870" y="546" font-size="15">portfolio-ready result</text>

  <rect x="250" y="600" width="900" height="70" rx="14" fill="#d8f0e1" stroke="#2c2c2c" stroke-width="2"/>
  <text class="ink" x="285" y="630" font-size="16">Prompt cue: preserve original layout exactly; improve linework;</text>
  <text class="ink" x="285" y="655" font-size="16">add top-view trees, paving textures, and soft professional colors.</text>
</svg>
