<svg xmlns="http://www.w3.org/2000/svg" width="1200" height="600" viewBox="0 0 1200 600" role="img" aria-labelledby="title desc">
  <title id="title">Retexture prompt example</title>
  <desc id="desc">A conceptual diagram showing a base scene and a material reference combined into a retextured result.</desc>
  <defs>
    <style>
      .bg{fill:#f7f5ef}
      .panel{fill:#fffdf8;stroke:#2c2c2c;stroke-width:2}
      .ink{fill:#252525;font-family:Inter,Arial,sans-serif}
      .muted{fill:#666;font-family:Inter,Arial,sans-serif}
      .line{stroke:#2c2c2c;stroke-width:3;fill:none;stroke-linecap:round;stroke-linejoin:round}
      .thin{stroke:#2c2c2c;stroke-width:2;fill:none;stroke-linecap:round;stroke-linejoin:round}
      .wall{fill:#e9e2d6;stroke:#2c2c2c;stroke-width:2}
      .glass{fill:#cfe7f4;stroke:#2c2c2c;stroke-width:2}
      .brick{fill:#f2c7aa;stroke:#2c2c2c;stroke-width:2}
      .stone{fill:#d6d1c7;stroke:#2c2c2c;stroke-width:2}
      .green{fill:#b8d7a8;stroke:#2c2c2c;stroke-width:2}
    </style>
    <pattern id="tiles" width="28" height="28" patternUnits="userSpaceOnUse">
      <rect width="28" height="28" fill="#d6d1c7"/>
      <path d="M0 0H28M0 14H28M0 0V28M14 0V28" stroke="#8b857a" stroke-width="1"/>
    </pattern>
    <pattern id="facade" width="42" height="28" patternUnits="userSpaceOnUse">
      <rect width="42" height="28" fill="#f2c7aa"/>
      <path d="M0 0H42M0 14H42M0 0V28M21 14V28" stroke="#8f5f4f" stroke-width="1.5"/>
    </pattern>
    <marker id="arrow" markerWidth="12" markerHeight="12" refX="10" refY="6" orient="auto">
      <path d="M2,2 L10,6 L2,10 Z" fill="#2c2c2c"/>
    </marker>
  </defs>
  <rect class="bg" width="1200" height="600"/>
  <text class="ink" x="60" y="62" font-size="34" font-weight="700">Example: material reference transfer</text>
  <text class="muted" x="60" y="98" font-size="18">The skill makes image roles explicit: base scene first, material reference second, protected perspective and lighting.</text>

  <rect class="panel" x="55" y="145" width="300" height="340" rx="18"/>
  <text class="ink" x="85" y="188" font-size="21" font-weight="700">Image 1: base scene</text>
  <polygon class="wall" points="95,390 315,390 315,230 95,255"/>
  <rect class="glass" x="130" y="270" width="60" height="90" rx="4"/>
  <rect class="glass" x="215" y="260" width="60" height="100" rx="4"/>
  <rect class="green" x="110" y="410" width="190" height="35" rx="12"/>
  <text class="muted" x="85" y="460" font-size="14">keep massing, camera, shadows</text>

  <rect class="panel" x="450" y="145" width="300" height="340" rx="18"/>
  <text class="ink" x="480" y="188" font-size="21" font-weight="700">Image 2: material</text>
  <rect x="505" y="235" width="190" height="165" rx="10" fill="url(#facade)" stroke="#2c2c2c" stroke-width="2"/>
  <text class="muted" x="480" y="460" font-size="14">use as texture, not as composition</text>

  <path class="line" marker-end="url(#arrow)" d="M365 315 H430"/>
  <path class="line" marker-end="url(#arrow)" d="M760 315 H825"/>

  <rect class="panel" x="845" y="145" width="300" height="340" rx="18"/>
  <text class="ink" x="875" y="188" font-size="21" font-weight="700">Result target</text>
  <polygon points="885,390 1105,390 1105,230 885,255" fill="url(#facade)" stroke="#2c2c2c" stroke-width="2"/>
  <rect class="glass" x="920" y="270" width="60" height="90" rx="4"/>
  <rect class="glass" x="1005" y="260" width="60" height="100" rx="4"/>
  <path class="thin" d="M885 390 L1105 390 L1105 230"/>
  <rect class="green" x="900" y="410" width="190" height="35" rx="12"/>
  <text class="muted" x="875" y="460" font-size="14">matched perspective, lighting, scale</text>

  <rect x="245" y="515" width="710" height="62" rx="12" fill="#dce7f7" stroke="#2c2c2c" stroke-width="2"/>
  <text class="ink" x="278" y="542" font-size="16">Prompt cue: replace only the target surface;</text>
  <text class="ink" x="278" y="565" font-size="16">preserve geometry, lighting direction, shadows, and context.</text>
</svg>
